<?xml version="1.0" standalone="no"?>
<!DOCTYPE svg PUBLIC "-//W3C//DTD SVG 20010904//EN"
 "http://www.w3.org/TR/2001/REC-SVG-20010904/DTD/svg10.dtd">
<svg version="1.0" xmlns="http://www.w3.org/2000/svg"
 width="40.000000pt" height="40.000000pt" viewBox="0 0 40.000000 40.000000"
 preserveAspectRatio="xMidYMid meet">

<g transform="translate(0.000000,40.000000) scale(0.100000,-0.100000)"
fill="#000000" stroke="none">
<path d="M254 385 c-14 -9 -25 -34 -33 -72 -16 -81 -25 -93 -44 -57 -35 67
-81 81 -92 27 -3 -15 -17 -66 -32 -113 -14 -47 -28 -92 -30 -100 -3 -8 5 -4
17 10 15 17 20 19 16 8 -3 -10 -2 -18 2 -18 11 0 52 100 59 143 5 35 23 53 23
23 0 -8 11 -27 24 -43 20 -23 26 -25 39 -14 20 16 57 87 57 108 0 11 3 13 9 7
5 -5 19 -64 31 -132 11 -68 24 -130 27 -138 15 -39 37 6 35 70 -3 65 -69 306
-84 306 -2 0 -13 -7 -24 -15z"/>
</g>
</svg>
